Coordinates
version=1
nRows=11
nColumns=33
inDegrees=yes

Units are S.I. units (second, meters, Newtons, ...)
Angles are in degrees.

endheader
time	ground_thorax_rot_x	ground_thorax_rot_y	ground_thorax_rot_z	ground_thorax_tx	ground_thorax_ty	ground_thorax_tz	clav_prot_r	clav_elev_r	scapula_abduction_r	scapula_elevation_r	scapula_upward_rot_r	scapula_winging_r	shoulder_elv_r	plane_of_elev_r	axial_rot_r	elbow_flexion_r	pro_sup_r	wrist_flex_r	wrist_dev_r	clav_prot_l	clav_elev_l	scapula_abduction_l	scapula_elevation_l	scapula_upward_rot_l	scapula_winging_l	shoulder_elv_l	plane_of_elev_l	axial_rot_l	elbow_flexion_l	pro_sup_l	wrist_flex_l	wrist_dev_l	
2.7900	38.194955	3.002809	14.740848	-230.703382	864.891392	-8.078035	12.143989	36.481244	33.274510	45.000000	-44.999999	4234.432778	-2093.159906	30.929222	72.409213	1456.234662	-290.218446	17.096615	4.918070	12.449643	-45.000000	-34.942299	45.000000	-45.000000	-1698.802899	-1895.395571	145.684430	135.360940	1811.942220	-317.469583	8.163565	-21.491805	
2.8000	38.233171	3.008221	14.489356	-231.462948	866.516040	-8.055323	12.385761	36.483910	33.357791	45.000000	-44.999998	4234.352924	-2093.096817	30.948285	72.057808	1455.832615	-295.478504	17.354545	5.298310	12.332491	-45.000000	-35.007447	45.000000	-45.000000	-1698.609363	-1895.328034	145.657881	135.278090	1811.716280	-319.522644	8.242233	-21.794110	
2.8100	38.292174	2.976042	14.194566	-232.134445	868.082312	-8.024544	12.720729	36.515932	33.497373	45.000000	-44.999996	4234.250131	-2093.060025	30.976875	71.698643	1455.380756	-301.220510	17.632892	5.786534	12.161461	-45.000000	-35.123205	45.000000	-45.000000	-1698.391379	-1895.304510	145.567833	135.144360	1811.427120	-321.805027	8.255332	-22.266223	
2.8200	38.331595	2.977049	13.954016	-232.617441	869.524941	-7.981050	12.861877	36.513806	33.565487	45.000000	-44.999992	4234.184584	-2092.998307	31.026146	71.497470	1454.897119	-307.027324	17.883095	6.160793	12.129942	-45.000000	-35.211497	45.000000	-45.000000	-1698.239417	-1895.256972	145.545493	135.069378	1811.185215	-324.162505	8.448011	-22.442288	
2.8300	38.365870	2.990579	13.739642	-232.898978	870.835980	-7.919410	12.920769	36.497273	33.606628	45.000000	-44.999986	4234.139892	-2092.919717	31.086348	71.333529	1454.492527	-311.864134	18.080178	6.435314	12.152456	-45.000000	-35.305277	45.000000	-45.000000	-1698.119913	-1895.208426	145.531620	135.063545	1811.000753	-326.154069	8.657398	-22.512685	
2.8400	38.393199	3.019893	13.551656	-232.954154	871.999637	-7.834857	12.901115	36.469478	33.620966	45.000000	-44.999975	4234.114266	-2092.827574	31.159054	71.195531	1454.175062	-315.682284	18.224022	6.621573	12.236779	-45.000000	-35.414820	45.000000	-45.000000	-1698.028951	-1895.158097	145.517744	135.105507	1810.867447	-327.758025	8.852236	-22.508035	
2.8500	38.417640	3.064672	13.389032	-232.783636	873.017462	-7.724656	12.840562	36.430381	33.632800	45.000000	-44.999955	4234.107721	-2092.724707	31.216646	71.016102	1454.008675	-317.854151	18.301493	6.701922	12.339563	-45.000000	-35.529947	45.000000	-45.000000	-1697.964558	-1895.103359	145.488119	135.215316	1810.800498	-328.690895	8.975232	-22.475750	
2.8600	38.442572	3.115091	13.244116	-232.400582	873.899138	-7.589287	12.777334	36.393823	33.664362	45.000000	-44.999920	4234.105174	-2092.624460	31.261428	70.784228	1453.963625	-318.775720	18.333336	6.725667	12.444869	-45.000000	-35.655210	45.000000	-45.000000	-1697.914217	-1895.048598	145.432567	135.352333	1810.775369	-329.102984	8.998751	-22.477474	
2.8700	38.464566	3.180604	13.130006	-231.819916	874.656355	-7.432862	12.705575	36.354882	33.709883	45.000000	-44.999857	4234.113957	-2092.519955	31.281577	70.516795	1454.010497	-318.769171	18.336888	6.694672	12.544487	-45.000000	-35.772025	45.000000	-44.999999	-1697.888598	-1894.981263	145.371334	135.517548	1810.794233	-329.108410	8.967678	-22.470801	
2.8800	38.485795	3.258447	13.042246	-231.057720	875.302015	-7.262479	12.632216	36.324041	33.764516	45.000000	-44.999743	4234.124661	-2092.419119	31.294809	70.248829	1454.056632	-318.752610	18.341003	6.666428	12.644775	-45.000000	-35.894554	45.000000	-44.999999	-1697.879840	-1894.916676	145.307764	135.668166	1810.814469	-329.081417	8.915650	-22.469232	
2.8900	38.513786	3.322090	12.965227	-230.131023	875.851347	-7.086938	12.585286	36.302217	33.854294	45.000000	-44.999541	4234.128478	-2092.333294	31.306954	69.986470	1454.100420	-318.721597	18.350382	6.638237	12.715951	-45.000000	-35.990679	45.000000	-44.999998	-1697.896845	-1894.844411	145.237544	135.821968	1810.848996	-329.005435	8.857933	-22.465649	
